<svg width="212" height="37" viewBox="0 0 212 37" fill="none" xmlns="http://www.w3.org/2000/svg">
<path d="M23.9224 36.9828V0L0.5 36.9828H0.513865H17.1353L14.0966 32.966H9.9327L18.659 18.2836V36.9828H23.9224Z" fill="#B23023"/>
<path d="M26.0002 36.9828V0.138504L30.9866 6.23305V33.1045H43.0372L46.5 36.9828H26.0002Z" fill="#B23023"/>
<path d="M66.848 27.9914H63.1918L69.8487 9.08232H74.0774L80.7436 27.9914H77.0874L72.0369 12.9602H71.8892L66.848 27.9914ZM66.968 20.5773H76.9396V23.3288H66.968V20.5773ZM86.4288 9.08232V27.9914H83.0865V9.08232H86.4288ZM89.8658 33.3096V13.8096H93.1527V16.1548H93.3466C93.5189 15.8101 93.7621 15.4438 94.076 15.056C94.3899 14.6621 94.8146 14.3266 95.3501 14.0496C95.8857 13.7665 96.5689 13.6249 97.3999 13.6249C98.4955 13.6249 99.4834 13.905 100.364 14.4651C101.25 15.0191 101.952 15.8408 102.469 16.9303C102.992 18.0137 103.254 19.3432 103.254 20.919C103.254 22.4763 102.998 23.7996 102.487 24.8891C101.976 25.9786 101.281 26.8096 100.401 27.382C99.5204 27.9545 98.5232 28.2407 97.4091 28.2407C96.5966 28.2407 95.9226 28.1053 95.3871 27.8344C94.8516 27.5636 94.4207 27.2374 94.0945 26.8558C93.7744 26.468 93.5251 26.1017 93.3466 25.757H93.2081V33.3096H89.8658ZM93.1435 20.9005C93.1435 21.8176 93.2727 22.6209 93.5313 23.3103C93.7959 23.9997 94.1745 24.5383 94.6669 24.9261C95.1655 25.3077 95.7687 25.4985 96.4766 25.4985C97.2152 25.4985 97.8338 25.3015 98.3324 24.9076C98.831 24.5075 99.2064 23.9628 99.4588 23.2734C99.7173 22.5778 99.8466 21.7869 99.8466 20.9005C99.8466 20.0203 99.7204 19.2386 99.468 18.5553C99.2157 17.8721 98.8402 17.3366 98.3416 16.9488C97.843 16.561 97.2214 16.3671 96.4766 16.3671C95.7626 16.3671 95.1563 16.5549 94.6577 16.9303C94.1591 17.3058 93.7805 17.8321 93.522 18.5092C93.2697 19.1862 93.1435 19.9834 93.1435 20.9005ZM106.116 27.9914V13.8096H109.357V16.1732H109.504C109.763 15.3546 110.206 14.7237 110.834 14.2805C111.468 13.8311 112.191 13.6065 113.004 13.6065C113.188 13.6065 113.394 13.6157 113.622 13.6342C113.856 13.6465 114.05 13.668 114.204 13.6988V16.7734C114.062 16.7241 113.838 16.681 113.53 16.6441C113.228 16.601 112.936 16.5795 112.653 16.5795C112.043 16.5795 111.496 16.7118 111.009 16.9765C110.529 17.235 110.151 17.5951 109.874 18.0567C109.597 18.5184 109.458 19.0508 109.458 19.6541V27.9914H106.116ZM116.424 27.9914V13.8096H119.767V27.9914H116.424ZM118.105 11.7968C117.575 11.7968 117.12 11.6214 116.738 11.2705C116.357 10.9135 116.166 10.4857 116.166 9.98715C116.166 9.48241 116.357 9.05462 116.738 8.70377C117.12 8.34676 117.575 8.16826 118.105 8.16826C118.64 8.16826 119.096 8.34676 119.471 8.70377C119.853 9.05462 120.044 9.48241 120.044 9.98715C120.044 10.4857 119.853 10.9135 119.471 11.2705C119.096 11.6214 118.64 11.7968 118.105 11.7968ZM128.466 28.2407C127.352 28.2407 126.355 27.9545 125.475 27.382C124.595 26.8096 123.899 25.9786 123.388 24.8891C122.877 23.7996 122.622 22.4763 122.622 20.919C122.622 19.3432 122.881 18.0137 123.398 16.9303C123.921 15.8408 124.626 15.0191 125.512 14.4651C126.398 13.905 127.386 13.6249 128.476 13.6249C129.307 13.6249 129.99 13.7665 130.525 14.0496C131.061 14.3266 131.486 14.6621 131.8 15.056C132.113 15.4438 132.357 15.8101 132.529 16.1548H132.667V9.08232H136.019V27.9914H132.732V25.757H132.529C132.357 26.1017 132.107 26.468 131.781 26.8558C131.455 27.2374 131.024 27.5636 130.488 27.8344C129.953 28.1053 129.279 28.2407 128.466 28.2407ZM129.399 25.4985C130.107 25.4985 130.71 25.3077 131.209 24.9261C131.707 24.5383 132.086 23.9997 132.344 23.3103C132.603 22.6209 132.732 21.8176 132.732 20.9005C132.732 19.9834 132.603 19.1862 132.344 18.5092C132.092 17.8321 131.716 17.3058 131.218 16.9303C130.725 16.5549 130.119 16.3671 129.399 16.3671C128.654 16.3671 128.032 16.561 127.534 16.9488C127.035 17.3366 126.66 17.8721 126.407 18.5553C126.155 19.2386 126.029 20.0203 126.029 20.9005C126.029 21.7869 126.155 22.5778 126.407 23.2734C126.666 23.9628 127.045 24.5075 127.543 24.9076C128.048 25.3015 128.666 25.4985 129.399 25.4985ZM145.767 28.2684C144.382 28.2684 143.181 27.9637 142.166 27.3543C141.15 26.745 140.362 25.8925 139.802 24.7968C139.248 23.7012 138.971 22.4209 138.971 20.9559C138.971 19.4909 139.248 18.2076 139.802 17.1058C140.362 16.004 141.15 15.1484 142.166 14.539C143.181 13.9296 144.382 13.6249 145.767 13.6249C147.152 13.6249 148.352 13.9296 149.368 14.539C150.383 15.1484 151.168 16.004 151.722 17.1058C152.282 18.2076 152.562 19.4909 152.562 20.9559C152.562 22.4209 152.282 23.7012 151.722 24.7968C151.168 25.8925 150.383 26.745 149.368 27.3543C148.352 27.9637 147.152 28.2684 145.767 28.2684ZM145.785 25.5908C146.536 25.5908 147.164 25.3846 147.669 24.9722C148.173 24.5537 148.549 23.9935 148.795 23.2918C149.047 22.5901 149.174 21.8084 149.174 20.9467C149.174 20.0788 149.047 19.294 148.795 18.5923C148.549 17.8844 148.173 17.3212 147.669 16.9026C147.164 16.4841 146.536 16.2748 145.785 16.2748C145.016 16.2748 144.376 16.4841 143.865 16.9026C143.36 17.3212 142.981 17.8844 142.729 18.5923C142.483 19.294 142.36 20.0788 142.36 20.9467C142.36 21.8084 142.483 22.5901 142.729 23.2918C142.981 23.9935 143.36 24.5537 143.865 24.9722C144.376 25.3846 145.016 25.5908 145.785 25.5908ZM164.424 27.9914H160.768L167.425 9.08232H171.654L178.32 27.9914H174.664L169.613 12.9602H169.465L164.424 27.9914ZM164.544 20.5773H174.516V23.3288H164.544V20.5773ZM180.663 33.3096V13.8096H183.95V16.1548H184.143C184.316 15.8101 184.559 15.4438 184.873 15.056C185.187 14.6621 185.612 14.3266 186.147 14.0496C186.683 13.7665 187.366 13.6249 188.197 13.6249C189.292 13.6249 190.28 13.905 191.161 14.4651C192.047 15.0191 192.749 15.8408 193.266 16.9303C193.789 18.0137 194.05 19.3432 194.05 20.919C194.05 22.4763 193.795 23.7996 193.284 24.8891C192.773 25.9786 192.078 26.8096 191.197 27.382C190.317 27.9545 189.32 28.2407 188.206 28.2407C187.393 28.2407 186.719 28.1053 186.184 27.8344C185.648 27.5636 185.218 27.2374 184.891 26.8558C184.571 26.468 184.322 26.1017 184.143 25.757H184.005V33.3096H180.663ZM183.94 20.9005C183.94 21.8176 184.07 22.6209 184.328 23.3103C184.593 23.9997 184.971 24.5383 185.464 24.9261C185.962 25.3077 186.566 25.4985 187.273 25.4985C188.012 25.4985 188.631 25.3015 189.129 24.9076C189.628 24.5075 190.003 23.9628 190.256 23.2734C190.514 22.5778 190.643 21.7869 190.643 20.9005C190.643 20.0203 190.517 19.2386 190.265 18.5553C190.013 17.8721 189.637 17.3366 189.138 16.9488C188.64 16.561 188.018 16.3671 187.273 16.3671C186.559 16.3671 185.953 16.5549 185.455 16.9303C184.956 17.3058 184.577 17.8321 184.319 18.5092C184.067 19.1862 183.94 19.9834 183.94 20.9005ZM196.913 33.3096V13.8096H200.2V16.1548H200.393C200.566 15.8101 200.809 15.4438 201.123 15.056C201.437 14.6621 201.862 14.3266 202.397 14.0496C202.933 13.7665 203.616 13.6249 204.447 13.6249C205.542 13.6249 206.53 13.905 207.411 14.4651C208.297 15.0191 208.999 15.8408 209.516 16.9303C210.039 18.0137 210.3 19.3432 210.3 20.919C210.3 22.4763 210.045 23.7996 209.534 24.8891C209.023 25.9786 208.328 26.8096 207.447 27.382C206.567 27.9545 205.57 28.2407 204.456 28.2407C203.643 28.2407 202.969 28.1053 202.434 27.8344C201.898 27.5636 201.468 27.2374 201.141 26.8558C200.821 26.468 200.572 26.1017 200.393 25.757H200.255V33.3096H196.913ZM200.19 20.9005C200.19 21.8176 200.32 22.6209 200.578 23.3103C200.843 23.9997 201.221 24.5383 201.714 24.9261C202.212 25.3077 202.816 25.4985 203.523 25.4985C204.262 25.4985 204.881 25.3015 205.379 24.9076C205.878 24.5075 206.253 23.9628 206.506 23.2734C206.764 22.5778 206.893 21.7869 206.893 20.9005C206.893 20.0203 206.767 19.2386 206.515 18.5553C206.263 17.8721 205.887 17.3366 205.388 16.9488C204.89 16.561 204.268 16.3671 203.523 16.3671C202.809 16.3671 202.203 16.5549 201.705 16.9303C201.206 17.3058 200.827 17.8321 200.569 18.5092C200.317 19.1862 200.19 19.9834 200.19 20.9005Z" fill="#333333"/>
</svg>
